<svg viewBox="0 0 12 12" xmlns="http://www.w3.org/2000/svg">
	<path d="M0 3.5A6 3.5 0 0 0 12 3.5A6 3.5 0 0 0 0 3.5" style="fill:#ff8e2a;"/>
	<path d="M1.5 2.5A0.5 0.5 0 0 0 4.5 4.5A0.5 0.5 0 0 0 1.5 2.5M8 3.5A0.5 0.5 0 0 0 9.5 2.5A0.5 0.5 0 0 0 8 3.5" style="fill:#ffd83f;"/>
	<path d="M5 7V9.5Q5 12 0 12H12Q7 12 7 9.5V7C11 6.5 9.5 4.5 6 4.5C2.5 4.5 1 6.5 5 7M7 1.5A0.5 0.5 0 0 0 8.5 2A0.5 0.5 0 0 0 7 1.5M1 3A0.5 0.5 0 0 0 2 3.5A0.5 0.5 0 0 0 1 3M2 2A0.5 0.5 0 0 0 3 2A0.5 0.5 0 0 0 2 2M9.5 2.5A0.5 0.5 0 0 0 11 4A0.5 0.5 0 0 0 9.5 2.5" style="fill:#827570;"/>
	<path d="M5 7C3.5 6.5 3.5 5 5.5 5C8 5 6 6 6 8V10.5Q6 11.5 5 12H0Q5 12 5 9.5Z" style="fill:#59514f;"/>
</svg>
